[Header]
FileType HTR
DataType HTRS
FileVersion 1
NumSegments 64
NumFrames 3
DataFrameRate 24
EulerRotationOrder ZYX
CalibrationUnits mm
RotationUnits Degrees
GlobalAxisofGravity Y
BoneLengthAxis Y
ScaleFactor 1.0
[SegmentNames&Hierarchy]
Hips	GLOBAL
Spine	Hips
Spine1	Spine
Spine2	Spine1
Neck	Spine2
Head	Neck
LeftEye	Head
RightEye	Head
LeftShoulder	Spine2
LeftArm	LeftShoulder
LeftForeArm	LeftArm
LeftHand	LeftForeArm
LeftHandThumb1	LeftHand
LeftHandThumb2	LeftHandThumb1
LeftHandThumb3	LeftHandThumb2
LeftHandThumb4	LeftHandThumb3
LeftHandIndex1	LeftHand
LeftHandIndex2	LeftHandIndex1
LeftHandIndex3	LeftHandIndex2
LeftHandIndex4	LeftHandIndex3
LeftHandMiddle1	LeftHand
LeftHandMiddle2	LeftHandMiddle1
LeftHandMiddle3	LeftHandMiddle2
LeftHandMiddle4	LeftHandMiddle3
LeftHandRing1	LeftHand
LeftHandRing2	LeftHandRing1
LeftHandRing3	LeftHandRing2
LeftHandRing4	LeftHandRing3
LeftHandPinky1	LeftHand
LeftHandPinky2	LeftHandPinky1
LeftHandPinky3	LeftHandPinky2
LeftHandPinky4	LeftHandPinky3
RightShoulder	Spine2
RightArm	RightShoulder
RightForeArm	RightArm
RightHand	RightForeArm
RightHandPinky1	RightHand
RightHandPinky2	RightHandPinky1
RightHandPinky3	RightHandPinky2
RightHandPinky4	RightHandPinky3
RightHandRing1	RightHand
RightHandRing2	RightHandRing1
RightHandRing3	RightHandRing2
RightHandRing4	RightHandRing3
RightHandMiddle1	RightHand
RightHandMiddle2	RightHandMiddle1
RightHandMiddle3	RightHandMiddle2
RightHandMiddle4	RightHandMiddle3
RightHandIndex1	RightHand
RightHandIndex2	RightHandIndex1
RightHandIndex3	RightHandIndex2
RightHandIndex4	RightHandIndex3
RightHandThumb1	RightHand
RightHandThumb2	RightHandThumb1
RightHandThumb3	RightHandThumb2
RightHandThumb4	RightHandThumb3
LeftUpLeg	Hips
LeftLeg	LeftUpLeg
LeftFoot	LeftLeg
LeftToeBase	LeftFoot
RightUpLeg	Hips
RightLeg	RightUpLeg
RightFoot	RightLeg
RightToeBase	RightFoot
[BasePosition]
Hips	0	0	0	0	0	0	1
Spine	0	0	0	0	0	0	1
Spine1	0	0	0	0	0	0	1
Spine2	0	0	0	0	0	0	1
Neck	0	0	0	0	0	0	1
Head	0	0	0	0	0	0	1
LeftEye	0	0	0	0	0	0	1
RightEye	0	0	0	0	0	0	1
LeftShoulder	0	0	0	0	0	0	1
LeftArm	0	0	0	0	0	0	1
LeftForeArm	0	0	0	0	0	0	1
LeftHand	0	0	0	0	0	0	1
LeftHandThumb1	0	0	0	0	0	0	1
LeftHandThumb2	0	0	0	0	0	0	1
LeftHandThumb3	0	0	0	0	0	0	1
LeftHandThumb4	0	0	0	0	0	0	1
LeftHandIndex1	0	0	0	0	0	0	1
LeftHandIndex2	0	0	0	0	0	0	1
LeftHandIndex3	0	0	0	0	0	0	1
LeftHandIndex4	0	0	0	0	0	0	1
LeftHandMiddle1	0	0	0	0	0	0	1
LeftHandMiddle2	0	0	0	0	0	0	1
LeftHandMiddle3	0	0	0	0	0	0	1
LeftHandMiddle4	0	0	0	0	0	0	1
LeftHandRing1	0	0	0	0	0	0	1
LeftHandRing2	0	0	0	0	0	0	1
LeftHandRing3	0	0	0	0	0	0	1
LeftHandRing4	0	0	0	0	0	0	1
LeftHandPinky1	0	0	0	0	0	0	1
LeftHandPinky2	0	0	0	0	0	0	1
LeftHandPinky3	0	0	0	0	0	0	1
LeftHandPinky4	0	0	0	0	0	0	1
RightShoulder	0	0	0	0	0	0	1
RightArm	0	0	0	0	0	0	1
RightForeArm	0	0	0	0	0	0	1
RightHand	0	0	0	0	0	0	1
RightHandPinky1	0	0	0	0	0	0	1
RightHandPinky2	0	0	0	0	0	0	1
RightHandPinky3	0	0	0	0	0	0	1
RightHandPinky4	0	0	0	0	0	0	1
RightHandRing1	0	0	0	0	0	0	1
RightHandRing2	0	0	0	0	0	0	1
RightHandRing3	0	0	0	0	0	0	1
RightHandRing4	0	0	0	0	0	0	1
RightHandMiddle1	0	0	0	0	0	0	1
RightHandMiddle2	0	0	0	0	0	0	1
RightHandMiddle3	0	0	0	0	0	0	1
RightHandMiddle4	0	0	0	0	0	0	1
RightHandIndex1	0	0	0	0	0	0	1
RightHandIndex2	0	0	0	0	0	0	1
RightHandIndex3	0	0	0	0	0	0	1
RightHandIndex4	0	0	0	0	0	0	1
RightHandThumb1	0	0	0	0	0	0	1
RightHandThumb2	0	0	0	0	0	0	1
RightHandThumb3	0	0	0	0	0	0	1
RightHandThumb4	0	0	0	0	0	0	1
LeftUpLeg	0	0	0	0	0	0	1
LeftLeg	0	0	0	0	0	0	1
LeftFoot	0	0	0	0	0	0	1
LeftToeBase	0	0	0	0	0	0	1
RightUpLeg	0	0	0	0	0	0	1
RightLeg	0	0	0	0	0	0	1
RightFoot	0	0	0	0	0	0	1
RightToeBase	0	0	0	0	0	0	1
[Hips]
11	-1931.738403	913.0474854	20.79178047	5.420738697	-73.4330368	14.04319954	1.0
12	-2116.237549	930.2203979	14.86846733	19.99969292	-74.61385345	-0.003314400557	1.0
13	-2300.445801	945.5512085	10.91573238	26.66077042	-76.03007507	-5.749795914	1.0
[Spine]
11	0	101.8159943	1.315000057	7.840319633	4.792232037	-3.108107567	1.0
12	0	101.8159943	1.315000057	6.824170589	2.40391922	0.1555447727	1.0
13	0	101.8159943	1.315000057	6.474383831	0.6841683388	1.118304253	1.0
[Spine1]
11	0	100.8349991	-10.00800037	3.077824354	1.954998374	-1.211779714	1.0
12	0	100.8349991	-10.00800037	2.833959341	1.094688177	-0.3416540325	1.0
13	0	100.8349991	-10.00800037	2.718179464	0.5272170305	-0.1217180118	1.0
[Spine2]
11	0	91	-13.73399925	3.061940432	1.963716388	-1.23521769	1.0
12	0	91	-13.73399925	2.822850227	1.117750525	-0.3499570489	1.0
13	0	91	-13.73399925	2.711358309	0.5507007837	-0.1253576279	1.0
[Neck]
11	0	166.7169952	-25.16200066	-0.5885369778	8.378938675	1.650937319	1.0
12	0	166.7169952	-25.16200066	-1.134842873	9.609955788	0.7950850725	1.0
13	0	166.7169952	-25.16200066	-1.985062003	10.43570805	0.1932698339	1.0
[Head]
11	0	96.17900085	16.84999847	-36.0790329	41.75582123	-38.27921295	1.0
12	0	96.17900085	16.84999847	-37.51275635	45.89296341	-41.63423538	1.0
13	0	96.17900085	16.84999847	-40.08691788	47.63442993	-43.87410736	1.0
[LeftEye]
11	30.6760006	64.09500122	92.83599854	0	0	0	1.0
12	30.6760006	64.09500122	92.83599854	0	0	0	1.0
13	30.6760006	64.09500122	92.83599854	0	0	0	1.0
[RightEye]
11	-30.6760006	64.09500122	92.83499908	0	0	0	1.0
12	-30.6760006	64.09500122	92.83499908	0	0	0	1.0
13	-30.6760006	64.09500122	92.83499908	0	0	0	1.0
[LeftShoulder]
11	45.70400238	109.4599991	-26.28000069	2.306866169	-6.926629543	-15.36672783	1.0
12	45.70400238	109.4599991	-26.28000069	1.593775272	-4.729627132	-12.37958717	1.0
13	45.70400238	109.4599991	-26.28000069	0.9285705686	-1.956114054	-10.99890327	1.0
[LeftArm]
11	105.923996	-5.24600029	-22.32099915	13.92434883	-12.17443562	-33.28353882	1.0
12	105.923996	-5.24600029	-22.32099915	13.71653843	-18.29979706	-29.84507561	1.0
13	105.923996	-5.24600029	-22.32099915	10.74827003	-21.28877831	-27.85644722	1.0
[LeftForeArm]
11	278.414978	-0.0009999999311	0	-1.83595821e-05	-72.11628723	-0.0002213595435	1.0
12	278.414978	-0.0009999999311	0	1.379574587e-05	-79.64894867	-0.0002247885277	1.0
13	278.414978	-0.0009999999311	0	5.841269012e-05	-84.63256836	-0.0004123569233	1.0
[LeftHand]
11	283.2879944	0	0	16.54458427	-3.357903242	-24.35644722	1.0
12	283.2879944	0	0	12.79614544	-4.866746902	-20.34921265	1.0
13	283.2879944	0	0	12.14929771	-9.271520615	-4.94165659	1.0
[LeftHandThumb1]
11	24.6609993	-15.75	26.8239994	-1.252281427	0.09809504449	-3.642711639	1.0
12	24.6609993	-15.75	26.8239994	-2.988064051	-4.504393101	-5.111778736	1.0
13	24.6609993	-15.75	26.8239994	-4.527004242	-8.868877411	-6.38005352	1.0
[LeftHandThumb2]
11	32.29800034	-18.64699936	18.64699936	7.520366192	13.93784904	17.67342377	1.0
12	32.29800034	-18.64699936	18.64699936	6.555286407	9.508333206	16.50778389	1.0
13	32.29800034	-18.64699936	18.64699936	5.739021778	5.324621677	15.49949265	1.0
[LeftHandThumb3]
11	26.52600098	-15.31499958	15.31499958	-28.85354424	-22.18668365	22.11551666	1.0
12	26.52600098	-15.31499958	15.31499958	-30.40993309	-25.16573715	22.92701149	1.0
13	26.52600098	-15.31499958	15.31499958	-31.95694733	-27.94585609	23.79604149	1.0
[LeftHandThumb4]
11	19.54599953	-11.28499985	11.28499985	0	0	0	1.0
12	19.54599953	-11.28499985	11.28499985	0	0	0	1.0
13	19.54599953	-11.28499985	11.28499985	0	0	0	1.0
[LeftHandIndex1]
11	91.09299469	-5.170999527	22.60099792	-2.924585581	-2.332063198	-41.4824295	1.0
12	91.09299469	-5.170999527	22.60099792	-2.171681643	-2.525103092	-33.91429138	1.0
13	91.09299469	-5.170999527	22.60099792	-1.420324326	-2.797364712	-25.52267456	1.0
[LeftHandIndex2]
11	36.76399994	0	0	-0.6416953206	2.66147542	-27.10639763	1.0
12	36.76399994	0	0	-0.2982657552	1.842969894	-18.38473511	1.0
13	36.76399994	0	0	-0.08598805219	0.9989034534	-9.840437889	1.0
[LeftHandIndex3]
11	28.83100128	0	0	-0.08701465279	1.004841447	-9.899443626	1.0
12	28.83100128	0	0	-0.00129113032	0.1226554587	-1.202274084	1.0
13	28.83100128	0	0	-0.04615147039	-0.733058393	7.204714775	1.0
[LeftHandIndex4]
11	23.92700005	0	0	0	0	0	1.0
12	23.92700005	0	0	0	0	0	1.0
13	23.92700005	0	0	0	0	0	1.0
[LeftHandMiddle1]
11	95.33399963	0	0	-3.841853142	-0.6624203324	-50.10641861	1.0
12	95.33399963	0	0	-2.975125551	-0.9349079728	-41.6720047	1.0
13	95.33399963	0	0	-2.09823966	-1.09351337	-32.43934631	1.0
[LeftHandMiddle2]
11	36.98199844	0	0	-2.140902996	4.515202522	-50.71850586	1.0
12	36.98199844	0	0	-1.505387664	3.911676884	-42.08508682	1.0
13	36.98199844	0	0	-0.9243935347	3.152667761	-32.67611313	1.0
[LeftHandMiddle3]
11	29.50900078	0	0	-0.01889569312	0.4696515799	-4.608448505	1.0
12	29.50900078	0	0	-0.01952586509	-0.4774185121	4.684947968	1.0
13	29.50900078	0	0	-0.1293758303	-1.222903609	12.07781506	1.0
[LeftHandMiddle4]
11	28.3390007	0	0	0	0	0	1.0
12	28.3390007	0	0	0	0	0	1.0
13	28.3390007	0	0	0	0	0	1.0
[LeftHandRing1]
11	91.04499817	-0.4390000105	-18.65100098	-4.005112648	3.048848391	-51.55020142	1.0
12	91.04499817	-0.4390000105	-18.65100098	-2.983365297	2.227557659	-41.63198853	1.0
13	91.04499817	-0.4390000105	-18.65100098	-1.984960914	1.81091404	-30.98736763	1.0
[LeftHandRing2]
11	31.54000092	0	0	-3.769383669	5.451557636	-69.3014679	1.0
12	31.54000092	0	0	-2.854479313	5.013021946	-59.29427338	1.0
13	31.54000092	0	0	-1.976780295	4.376244545	-48.60149765	1.0
[LeftHandRing3]
11	29.37700081	0	0	-0.2119986564	1.559698105	-15.47948837	1.0
12	29.37700081	0	0	-0.01823035814	0.4612683654	-4.526169777	1.0
13	29.37700081	0	0	-0.03197614849	-0.6105260849	5.995589256	1.0
[LeftHandRing4]
11	26.47500038	0	0	0	0	0	1.0
12	26.47500038	0	0	0	0	0	1.0
13	26.47500038	0	0	0	0	0	1.0
[LeftHandPinky1]
11	80.77799988	-4.887000084	-38.06099701	-5.339990616	5.005614281	-61.22399139	1.0
12	80.77799988	-4.887000084	-38.06099701	-4.278003693	4.417245388	-48.2580452	1.0
13	80.77799988	-4.887000084	-38.06099701	-3.268043756	3.412976027	-34.80118179	1.0
[LeftHandPinky2]
11	36	0	0	-5.336582661	5.804744244	-85.18004608	1.0
12	36	0	0	-4.046461105	5.547883987	-72.19185638	1.0
13	36	0	0	-2.802335501	4.981807709	-58.69570541	1.0
[LeftHandPinky3]
11	21.14200211	0	0	-1.002458692	3.27098012	-34.06928253	1.0
12	21.14200211	0	0	-0.3842502236	2.083790541	-20.89416504	1.0
13	21.14200211	0	0	-0.05050135031	0.7666230798	-7.536559105	1.0
[LeftHandPinky4]
11	19.75699997	0	0	0	0	0	1.0
12	19.75699997	0	0	0	0	0	1.0
13	19.75699997	0	0	0	0	0	1.0
[RightShoulder]
11	-45.70000076	109.4620056	-26.28000069	2.666447163	11.1108427	11.05145931	1.0
12	-45.70000076	109.4620056	-26.28000069	2.772467613	12.19606304	10.3577404	1.0
13	-45.70000076	109.4620056	-26.28000069	3.052328587	13.8324995	10.2016325	1.0
[RightArm]
11	-105.9280014	-5.248000145	-22.32099915	-4.488975525	-25.97006035	67.34034729	1.0
12	-105.9280014	-5.248000145	-22.32099915	-10.26401711	-29.43388939	67.975914	1.0
13	-105.9280014	-5.248000145	-22.32099915	-13.37784195	-30.64619446	65.86383057	1.0
[RightForeArm]
11	-278.414978	0	0	-1.199740018e-05	30.39990234	3.642917363e-07	1.0
12	-278.414978	0	0	-9.193514416e-06	17.62381744	-6.189103715e-06	1.0
13	-278.414978	0	0	-8.995620192e-06	14.86523533	-7.386814104e-06	1.0
[RightHand]
11	-283.2879944	0	0.0009999999311	52.61858749	27.94705963	-7.759052753	1.0
12	-283.2879944	0	0.0009999999311	59.90117264	25.52675247	6.449997425	1.0
13	-283.2879944	0	0.0009999999311	63.41603851	5.998434067	18.03149986	1.0
[RightHandPinky1]
11	-80.76699829	-4.885000229	-38.06000137	-2.39105463	-2.907353163	23.38183784	1.0
12	-80.76699829	-4.885000229	-38.06000137	-2.499984503	-2.984360218	25.48550415	1.0
13	-80.76699829	-4.885000229	-38.06000137	-3.01848793	-3.32457304	35.18552399	1.0
[RightHandPinky2]
11	-36	0	0.0009999999311	-1.535125136	-3.445550919	48.03902054	1.0
12	-36	0	0.0009999999311	-1.663587451	-3.556733847	50.14236069	1.0
13	-36	0	0.0009999999311	-2.304896355	-4.005249977	59.84437943	1.0
[RightHandPinky3]
11	-21.14200211	0	0	-0.00462970417	0.2071708441	-2.558715343	1.0
12	-21.14200211	0	0	-0.0001541777601	0.03751667961	-0.4632091522	1.0
13	-21.14200211	0	0	-0.05965444073	-0.7416588068	9.196879387	1.0
[RightHandPinky4]
11	-19.75699997	0	0	0	0	0	1.0
12	-19.75699997	0	0	0	0	0	1.0
13	-19.75699997	0	0	0	0	0	1.0
[RightHandRing1]
11	-91.03599548	-0.4390000105	-18.65100098	-1.10401845	-1.724503398	21.39326286	1.0
12	-91.03599548	-0.4390000105	-18.65100098	-1.203470588	-1.777744174	22.862957	1.0
13	-91.03599548	-0.4390000105	-18.65100098	-1.689478278	-2.040205956	29.63742638	1.0
[RightHandRing2]
11	-31.54000092	0	0	-1.075654268	-2.96917057	39.82115936	1.0
12	-31.54000092	0	0	-1.153104424	-3.059538603	41.29386902	1.0
13	-31.54000092	0	0	-1.53915	-3.449153662	48.0862236	1.0
[RightHandRing3]
11	-29.37700081	0	0	-0.1156549007	1.029528379	-12.81917	1.0
12	-29.37700081	0	0	-0.09077464789	0.9133390188	-11.35167217	1.0
13	-29.37700081	0	0	-0.01486708783	0.3712001741	-4.588017941	1.0
[RightHandRing4]
11	-26.47500038	0	0	0	0	0	1.0
12	-26.47500038	0	0	0	0	0	1.0
13	-26.47500038	0	0	0	0	0	1.0
[RightHandMiddle1]
11	-95.32500458	0	0	-1.25355041	1.589441299	23.78755951	1.0
12	-95.32500458	0	0	-1.334849954	1.600777507	24.94852448	1.0
13	-95.32500458	0	0	-1.726152897	1.589850426	30.30039215	1.0
[RightHandMiddle2]
11	-36.98199844	0	0	-0.4256615639	-1.941042066	24.73557854	1.0
12	-36.98199844	0	0	-0.4664326012	-2.027149677	25.91319656	1.0
13	-36.98199844	0	0	-0.6769903898	-2.412572622	31.3448925	1.0
[RightHandMiddle3]
11	-29.50900078	0	0	-0.1571278274	1.195230007	-14.95322227	1.0
12	-29.50900078	0	0	-0.1460256279	1.152866721	-14.412323	1.0
13	-29.50900078	0	0	-0.07605355233	0.8346247673	-10.38721561	1.0
[RightHandMiddle4]
11	-28.3390007	0	0.0009999999311	0	0	0	1.0
12	-28.3390007	0	0.0009999999311	0	0	0	1.0
13	-28.3390007	0	0.0009999999311	0	0	0	1.0
[RightHandIndex1]
11	-91.08300018	-5.167999744	22.60099792	-0.7395322323	3.597038507	17.433815	1.0
12	-91.08300018	-5.167999744	22.60099792	-0.8095123172	3.59765625	18.4114399	1.0
13	-91.08300018	-5.167999744	22.60099792	-1.133877873	3.540442467	22.9186821	1.0
[RightHandIndex2]
11	-36.76399994	0	0	-0.01200515777	-0.3335629106	4.121973991	1.0
12	-36.76399994	0	0	-0.0185637977	-0.4146491587	5.126396656	1.0
13	-36.76399994	0	0	-0.06711605191	-0.7863802314	9.756771088	1.0
[RightHandIndex3]
11	-28.83100128	0	0	-0.1120793074	1.013674617	-12.6184988	1.0
12	-28.83100128	0	0	-0.09523652494	0.9352738261	-11.62809277	1.0
13	-28.83100128	0	0	-0.03522175178	0.5706168413	-7.063222408	1.0
[RightHandIndex4]
11	-23.92700005	0	0	0	0	0	1.0
12	-23.92700005	0	0	0	0	0	1.0
13	-23.92700005	0	0	0	0	0	1.0
[RightHandThumb1]
11	-24.64799881	-15.72700024	26.82600021	-6.395473003	14.07240868	7.334493637	1.0
12	-24.64799881	-15.72700024	26.82600021	-6.072496891	13.06629944	7.114514828	1.0
13	-24.64799881	-15.72700024	26.82600021	-4.578874588	8.453063011	5.964299202	1.0
[RightHandThumb2]
11	-32.29800034	-18.64699936	18.64699936	6.346741199	-4.127811432	-15.96220779	1.0
12	-32.29800034	-18.64699936	18.64699936	6.513665199	-5.074118614	-16.1954937	1.0
13	-32.29800034	-18.64699936	18.64699936	7.344201565	-9.439811707	-17.22540855	1.0
[RightHandThumb3]
11	-26.52600098	-15.31399918	15.31399918	-29.11355209	24.3432827	-23.43276596	1.0
12	-26.52600098	-15.31399918	15.31399918	-28.77496719	23.71289253	-23.24912834	1.0
13	-26.52600098	-15.31399918	15.31399918	-27.25586128	20.80285072	-22.44415092	1.0
[RightHandThumb4]
11	-19.54599953	-11.28499985	11.28499985	0	0	0	1.0
12	-19.54599953	-11.28499985	11.28499985	0	0	0	1.0
13	-19.54599953	-11.28499985	11.28499985	0	0	0	1.0
[LeftUpLeg]
11	82.07800293	-67.51699829	-15.99599934	-18.77277565	5.359386921	-3.683162451	1.0
12	82.07800293	-67.51699829	-15.99599934	1.039566517	10.51473236	3.981105804	1.0
13	82.07800293	-67.51699829	-15.99599934	9.366270065	10.29318714	7.096459866	1.0
[LeftLeg]
11	0	-443.7049866	2.845999956	39.53575897	-8.236528397	-5.123559952	1.0
12	0	-443.7049866	2.845999956	15.41467094	-7.916495323	1.641989231	1.0
13	0	-443.7049866	2.845999956	10.24650002	-11.60768223	4.961172581	1.0
[LeftFoot]
11	0	-444.2789917	-29.8219986	-36.94050217	-1.125270844	4.617868423	1.0
12	0	-444.2789917	-29.8219986	-14.83220196	-6.304831505	-2.942929029	1.0
13	0	-444.2789917	-29.8219986	12.59073448	-3.059346914	-13.03412056	1.0
[LeftToeBase]
11	0	-87.28699493	107.1060028	-14.09334469	-2.046348527e-06	-3.769778004e-06	1.0
12	0	-87.28699493	107.1060028	-24.33176613	-2.865189163e-05	9.124202734e-06	1.0
13	0	-87.28699493	107.1060028	-19.09301567	0.1505163312	0.4417400956	1.0
[RightUpLeg]
11	-82.07800293	-67.51699829	-15.99599934	-68.06903076	-10.73220825	3.58915329	1.0
12	-82.07800293	-67.51699829	-15.99599934	-76.49113464	-4.424657345	3.59145093	1.0
13	-82.07800293	-67.51699829	-15.99599934	-73.79817963	-0.8889898062	2.819594383	1.0
[RightLeg]
11	0	-443.7049866	2.861999989	108.2491684	-0.009946716018	-1.58792007	1.0
12	0	-443.7049866	2.861999989	85.5651474	0.3236522675	-1.821075201	1.0
13	0	-443.7049866	2.861999989	52.82064438	3.344313145	0.3523773551	1.0
[RightFoot]
11	0	-444.2770081	-29.83799934	-12.69368553	-1.437782288	2.867290258	1.0
12	0	-444.2770081	-29.83799934	-15.46926308	-4.745916367	0.4984338284	1.0
13	0	-444.2770081	-29.83799934	-15.03993893	-3.70100069	1.491568565	1.0
[RightToeBase]
11	0	-87.28699493	107.1060028	-6.274496078	-1.695760329e-05	8.788693776e-06	1.0
12	0	-87.28699493	107.1060028	-5.546726227	4.015590093e-06	-6.116918485e-06	1.0
13	0	-87.28699493	107.1060028	-8.484982491	-3.804931839e-05	-2.198325774e-06	1.0
[EndOfFile]
